<svg xmlns="http://www.w3.org/2000/svg" xmlns:xlink="http://www.w3.org/1999/xlink" width="500" zoomAndPan="magnify" viewBox="0 0 375 374.999991" height="500" preserveAspectRatio="xMidYMid meet" version="1.0"><defs><clipPath id="9da358bcfd"><path d="M 132.199219 101.621094 L 242.449219 101.621094 L 242.449219 211.871094 L 132.199219 211.871094 Z M 132.199219 101.621094 " clip-rule="nonzero"/></clipPath></defs><g clip-path="url(#9da358bcfd)"><path fill="#fafafa" d="M 187.492188 103.609375 C 216.933594 103.609375 240.796875 127.476562 240.796875 156.914062 C 240.796875 186.355469 216.933594 210.222656 187.492188 210.222656 C 158.050781 210.222656 134.1875 186.355469 134.1875 156.914062 C 134.1875 127.476562 158.050781 103.609375 187.492188 103.609375 Z M 187.492188 101.617188 C 156.953125 101.617188 132.195312 126.375 132.195312 156.914062 C 132.195312 187.457031 156.953125 212.214844 187.492188 212.214844 C 218.035156 212.214844 242.792969 187.457031 242.792969 156.914062 C 242.792969 126.375 218.035156 101.617188 187.492188 101.617188 Z M 213.996094 132.3125 L 213.996094 155.441406 L 207.480469 151.230469 L 195.152344 158.882812 L 193.078125 160.171875 L 191.867188 160.925781 L 191.867188 125.460938 L 177.859375 134.144531 L 177.859375 149.398438 L 174.574219 147.175781 L 174.574219 132.3125 L 195.152344 119.558594 Z M 141.46875 156.914062 C 141.46875 131.496094 162.074219 110.890625 187.492188 110.890625 C 212.910156 110.890625 233.515625 131.496094 233.515625 156.914062 C 233.515625 168.660156 229.109375 179.375 221.871094 187.507812 L 221.871094 162.996094 L 207.53125 153.289062 L 191.867188 162.996094 L 191.867188 202.726562 C 190.425781 202.863281 188.96875 202.9375 187.492188 202.9375 C 186.015625 202.9375 184.558594 202.863281 183.117188 202.726562 L 183.117188 155.1875 L 168.777344 145.480469 L 153.117188 155.1875 L 153.117188 187.507812 C 145.875 179.375 141.46875 168.660156 141.46875 156.914062 Z M 155.617188 156.578125 L 166.277344 149.972656 L 166.277344 197.753906 C 162.359375 195.714844 158.773438 193.128906 155.617188 190.097656 Z M 194.367188 164.386719 L 205.027344 157.78125 L 205.027344 199.472656 C 201.65625 200.863281 198.085938 201.871094 194.367188 202.425781 Z M 136.855469 156.914062 C 136.855469 184.882812 159.527344 207.554688 187.492188 207.554688 C 215.460938 207.554688 238.128906 184.882812 238.128906 156.914062 C 238.128906 128.949219 215.460938 106.277344 187.492188 106.277344 C 159.527344 106.277344 136.855469 128.949219 136.855469 156.914062 " fill-opacity="1" fill-rule="nonzero"/><path fill="#fafafa" d="M 187.492188 103.609375 C 216.933594 103.609375 240.796875 127.476562 240.796875 156.914062 C 240.796875 186.355469 216.933594 210.222656 187.492188 210.222656 C 158.050781 210.222656 134.1875 186.355469 134.1875 156.914062 C 134.1875 127.476562 158.050781 103.609375 187.492188 103.609375 Z M 187.492188 101.617188 C 156.953125 101.617188 132.195312 126.375 132.195312 156.914062 C 132.195312 187.457031 156.953125 212.214844 187.492188 212.214844 C 218.035156 212.214844 242.792969 187.457031 242.792969 156.914062 C 242.792969 126.375 218.035156 101.617188 187.492188 101.617188 Z M 213.996094 132.3125 L 213.996094 155.441406 L 207.480469 151.230469 L 195.152344 158.882812 L 193.078125 160.171875 L 191.867188 160.925781 L 191.867188 125.460938 L 177.859375 134.144531 L 177.859375 149.398438 L 174.574219 147.175781 L 174.574219 132.3125 L 195.152344 119.558594 Z M 141.46875 156.914062 C 141.46875 131.496094 162.074219 110.890625 187.492188 110.890625 C 212.910156 110.890625 233.515625 131.496094 233.515625 156.914062 C 233.515625 168.660156 229.109375 179.375 221.871094 187.507812 L 221.871094 162.996094 L 207.53125 153.289062 L 191.867188 162.996094 L 191.867188 202.726562 C 190.425781 202.863281 188.96875 202.9375 187.492188 202.9375 C 186.015625 202.9375 184.558594 202.863281 183.117188 202.726562 L 183.117188 155.1875 L 168.777344 145.480469 L 153.117188 155.1875 L 153.117188 187.507812 C 145.875 179.375 141.46875 168.660156 141.46875 156.914062 Z M 155.617188 156.578125 L 166.277344 149.972656 L 166.277344 197.753906 C 162.359375 195.714844 158.773438 193.128906 155.617188 190.097656 Z M 194.367188 164.386719 L 205.027344 157.78125 L 205.027344 199.472656 C 201.65625 200.863281 198.085938 201.871094 194.367188 202.425781 Z M 136.855469 156.914062 C 136.855469 184.882812 159.527344 207.554688 187.492188 207.554688 C 215.460938 207.554688 238.128906 184.882812 238.128906 156.914062 C 238.128906 128.949219 215.460938 106.277344 187.492188 106.277344 C 159.527344 106.277344 136.855469 128.949219 136.855469 156.914062 " fill-opacity="1" fill-rule="nonzero"/></g></svg>