<?xml version="1.0" encoding="UTF-8"?>
<svg version="1.1" viewBox="0 0 2000 2000" width="1280" height="1280" xmlns="http://www.w3.org/2000/svg">
<path transform="translate(979,567)" d="m0 0h38l31 4 23 5 24 8 17 7 19 10 18 11 19 14 12 11 8 7 11 11 9 11 13 17 15 25 12 25 7 19 6 22 4 21 3 28v24l-2 23-5 28-7 24-8 21-11 23-14 22-12 16-12 14-10 11-8 7-10 9-19 14-25 15-21 10-22 8-23 6-20 4-16 2-20 1h-14l-24-2-24-4-26-7-26-10-22-11-21-13-21-16-16-15-10-10-9-11-12-15-12-19-12-23-8-19-7-22-6-26-3-20-1-19v-17l2-22 4-24 6-24 9-24 7-15 9-17 10-16 13-17 12-14 21-21 14-11 17-12 15-9 22-11 26-10 27-7 25-4zm7 24-21 2-26 5-26 8-23 10-20 11-17 12-16 13-15 14-11 12-14 19-10 16-8 14-9 21-7 21-6 26-2 13-1 19v25l3 24 4 20 8 26 9 20 11 21 12 17 11 14 4 4 1-171 9-6 26-16 19-12 21-13 5-4 6 2 30 20 19 13 12 8 11 8 1 253 16 1h12l17-1 1-47v-166l6-2 19-12 21-13 24-15 11-7 3-1 20 14 15 10 16 11 12 8 10 7h2v130l4-2 9-11 12-17 10-18 9-19 10-30 5-22 3-22 1-21-2-27-4-24-6-23-10-26-10-20-12-19-10-13-11-13-18-18-14-11-14-10-13-8-21-11-24-9-21-6-30-5-15-1zm-101 208-18 11-21 13-16 10-1 3v175l7 8 15 12 14 10 18 11 3 1v-254zm205 42-21 13-26 16-8 6 1 202 12-2 23-6 18-6 3-2v-221z" fill="#FEFEFE"/>
<path transform="translate(1038,637)" d="m0 0 8 4 28 19 12 8 25 17 12 8 13 9 4 3v123l-5-2-10-7-19-12-4 1-26 16-19 12-24 15-10 6h-1l-1-125v-43l1-20-26 16-24 15-21 13-2 1-1 82-4-2-14-10-1-1v-76l5-5 23-14 19-12 26-16 24-15 9-6z" fill="#FEFEFE"/>
<path transform="translate(976,543)" d="m0 0h46l29 3 24 5 30 10 25 11 20 11 21 14 18 14 16 15 13 13 9 11 13 17 12 19 12 22 11 26 8 26 5 23 3 24 1 21v14l-1 22-4 31-7 27-7 21-11 24-9 17-12 19-13 17-12 14-22 22-11 9-19 14-21 13-24 12-28 11-30 8-26 4-12 1h-50l-28-3-23-5-33-11-18-8-22-12-19-12-18-14-10-9-8-7-14-14-9-11-12-15-9-14-10-17-8-16-8-18-9-27-5-21-3-20-1-14v-50l3-27 7-30 7-21 11-25 10-19 14-22 9-11 6-8 11-12 9-10 20-18 19-14 24-15 22-11 23-9 22-7 24-5zm-1 10-25 3-23 5-26 8-21 9-22 11-19 12-17 13-13 11-6 5v2l-4 2-7 7-7 8-13 16-18 27-14 27-10 25-7 23-5 26-2 17v53l4 27 5 21 10 30 9 20 8 15 10 16 10 14 8 10 10 11 7 8 7 7 8 7 13 11 14 10 19 12 25 13 26 10 25 7 13 3 22 3 15 1h29l24-2 23-4 23-6 20-7 20-9 17-9 19-12 17-13 13-11 10-9v-2l3-1 7-8 8-9 13-17 10-15 10-18 8-16 10-26 5-18 4-17 3-18 2-26v-20l-2-26-5-27-6-23-9-25-12-25-10-17-10-14-10-13-12-14-17-17-11-9-15-12-22-14-25-13-23-9-19-6-22-5-20-3-10-1z" fill="#FEFEFE"/>
<path transform="translate(924,1249)" d="m0 0h12l8 16 9 20 12 27 2 4 2-2 13-30 15-34 1-1h14l2 26 3 54v10l-12 1-2-1-1-6-3-69-2 3-13 29-8 18-9 20-2 5-3 1-19-41-12-27-2-5-1 7-3 58-1 7-4 1-2-1 2-49 2-32 1-8z" fill="#FEFEFE"/>
<path transform="translate(1141,1249)" d="m0 0h34l12 3 8 5 4 5 2 6-1 9-4 6-7 6-4 3 12 6 8 9 1 3v8l-5 10-7 6-10 4-4 1-17 1h-22l-1-1v-89zm24 5-11 2v34l1 1h9l12-2 5-3 5-8 1-7-3-9-7-6-10-2zm-11 41-1 38 5 2h12l9-2 8-6 3-5v-11l-4-8-9-6-7-2z" fill="#FEFEFE"/>
<path transform="translate(1071,1248)" d="m0 0h20l10 3 9 6 7 8 5 11 1 4v24l-4 13-6 8-5 5-9 6-10 4-16 2-12-2-9-4-8-7-6-9-4-11-1-6v-11l3-14 6-12 7-8 14-8zm1 6-10 6-8 10-4 10-2 10v12l3 15 5 9 7 7 7 3 9 1 10-2 6-4 5-5 4-6 4-13 1-8v-10l-2-12-4-9-4-6-8-6-5-2z" fill="#FEFEFE"/>
<path transform="translate(826,1247)" d="m0 0 3 1 15 34 20 46 4 9-1 3h-11l-4-3-8-19-1-2h-40l-9 22-2 2h-5l-1-3 12-28 7-15 13-30 7-16zm-3 21-3 4-9 22-6 16h35l-2-9-11-28-2-5z" fill="#FEFEFE"/>
<path transform="translate(882,1249)" d="m0 0h12l1 1v89l-7 1-6-1z" fill="#FEFEFE"/>
<path transform="translate(479,1460)" d="m0 0h16l9 1 4 4 2 4-1 10-5 5h-3l6 10 4 7v2l-4-1-9-15-1-1-14-1-1 18-4-1v-41zm4 3-1 1v17l18 1 5-3 1-2v-8l-3-5-2-1z" fill="#FEFEFE"/>
<path transform="translate(971,1460)" d="m0 0h16l9 2 6 5 4 9v11l-3 8-5 6-5 2h-23v-42zm3 3v37l5 1h10l6-2 5-5 2-7v-12l-5-8-6-4z" fill="#FEFEFE"/>
<path transform="translate(1436,1460)" d="m0 0h11l7 3 5 6 2 5v16l-4 8-6 5-3 1h-14l-8-7-3-7-1-5v-7l4-10 5-5zm0 3-7 6-3 9v9l4 10 4 3 3 1h11l7-6 2-5v-17l-4-6-6-4z" fill="#FEFEFE"/>
<path transform="translate(1284,1460)" d="m0 0 4 2 8 11 16 21 1 1 1-34h4v42l-5-1-9-12-16-21-1 34h-3z" fill="#FEFEFE"/>
<path transform="translate(1224,1460)" d="m0 0h11l8 4 4 5 2 5 1 9-2 10-4 6-5 4-3 1h-13l-6-4-4-5-3-10v-7l4-10 5-5zm0 3-7 6-3 9v9l4 10 4 3 3 1h11l7-6 2-5 1-8-1-9-4-6-6-4z" fill="#FEFEFE"/>
<path transform="translate(1052,1460)" d="m0 0h10l7 3 5 6 2 5v15l-3 7-4 5-6 3h-13l-5-3-5-6-3-7v-11l4-9 8-7zm-1 3-6 5-4 10v9l4 10 6 4h12l7-6 3-9v-9l-3-7-4-5-4-2z" fill="#FEFEFE"/>
<path transform="translate(901,1460)" d="m0 0 7 6 13 18 10 13 1-37h3v43l-5-1-16-21-10-14-1 36h-3v-42z" fill="#FEFEFE"/>
<path transform="translate(1503,1460)" d="m0 0h11l8 3 2 5-6-2-4-2h-12l-4 4-1 6 5 5 15 4 6 4 1 2v7l-3 5h-2v2l-3 1h-14l-7-3-3-4h3l9 3h11l4-3 1-6-4-4-17-5-6-7v-6l4-6z" fill="#FEFEFE"/>
<path transform="translate(1158,1460)" d="m0 0h11l8 3 2 5-6-2-4-2h-12l-5 6 1 6 4 3 15 4 6 4 2 7-3 5-4 4-3 1h-12l-7-2-3-3v-2l4 1 7 2h11l5-4v-6l-4-3-17-5-5-5-1-2v-6l4-6z" fill="#FEFEFE"/>
<path transform="translate(1353,1460)" d="m0 0 4 1v18l4 1h23l1-19h3v42h-3l-1-19-27-1v20h-4z" fill="#FEFEFE"/>
<path transform="translate(621,1460)" d="m0 0h3l11 26 7 16-3 1-3-5-3-6h-22l-5 11-4-1 9-21 8-18zm1 5-4 6-6 17 3 1h17l-3-10-6-14z" fill="#FEFEFE"/>
<path transform="translate(847,1460)" d="m0 0 3 1 11 25 6 14-1 4-5-8-2-4h-22l-6 11-2 1 1-7 13-29zm0 6-9 20v2l4 1h16l-3-10-6-13z" fill="#FEFEFE"/>
<path transform="translate(545,1460)" d="m0 0h14l13 1v2l-24 1-1 16 24 1v2l-23 1-1 16 25 1v2h-28v-42z" fill="#FEFEFE"/>
<path transform="translate(792,1460)" d="m0 0h6l-2 5-6 10-10 14-7 10 2 1 24 1v2h-32l2-4 11-16 12-18 1-2h-26v-2z" fill="#FEFEFE"/>
<path transform="translate(677,1460)" d="m0 0 2 2-1 38 23 1v2h-27v-42z" fill="#FEFEFE"/>
<path transform="translate(733,1460)" d="m0 0h2v43h-3v-42z" fill="#FEFEFE"/>
</svg>
