<?xml version="1.0" encoding="UTF-8"?>
<svg version="1.1" viewBox="0 0 2000 2000" width="1280" height="1280" xmlns="http://www.w3.org/2000/svg">
<path transform="translate(979,567)" d="m0 0h38l31 4 23 5 24 8 17 7 19 10 15 9 14 10 10 8 10 9 8 7 11 11 9 11 13 17 15 25 12 25 7 19 6 22 4 21 3 28v24l-2 23-5 28-7 24-8 21-11 23-14 22-12 16-12 14-10 11-8 7-10 9-19 14-25 15-21 10-22 8-23 6-20 4-16 2-18 1h-17l-31-3-24-5-18-5-26-10-22-11-21-13-17-13-14-12-16-16-9-11-12-15-12-19-12-23-8-19-7-22-6-26-3-20-1-19v-17l2-22 4-24 6-24 9-24 7-15 9-17 10-16 13-17 12-14 21-21 14-11 17-12 15-9 22-11 26-10 27-7 25-4zm7 24-21 2-26 5-26 8-23 10-20 11-17 12-16 13-15 14-11 12-14 19-10 16-8 14-9 21-7 21-6 26-2 13-1 19v25l3 24 4 20 8 26 9 20 11 21 12 17 11 14 4 4 1-171 9-6 26-16 19-12 21-13 5-4 6 2 30 20 19 13 12 8 11 8 1 253 16 1h12l17-1 1-47v-166l6-2 19-12 21-13 24-15 11-7 3-1 20 14 15 10 16 11 12 8 10 7h2v130l4-2 9-11 12-17 10-18 9-19 10-30 5-22 3-22 1-21-2-27-4-24-6-23-10-26-10-20-12-19-10-13-11-13-18-18-14-11-14-10-13-8-21-11-24-9-21-6-30-5-15-1zm-101 208-18 11-21 13-16 10-1 3v175l7 8 15 12 14 10 18 11 3 1v-254zm205 42-21 13-26 16-8 6 1 202 12-2 23-6 18-6 3-2v-221z" fill="#0553A1"/>
<path transform="translate(1038,637)" d="m0 0 8 4 28 19 12 8 25 17 12 8 13 9 4 3v123l-5-2-10-7-19-12-4 1-26 16-19 12-24 15-10 6h-1l-1-125v-43l1-20-26 16-24 15-21 13-2 1-1 82-4-2-14-10-1-1v-76l5-5 23-14 19-12 26-16 24-15 9-6z" fill="#0553A1"/>
<path transform="translate(976,543)" d="m0 0h46l29 3 24 5 30 10 25 11 20 11 21 14 18 14 16 15 13 13 9 11 13 17 12 19 12 22 11 26 8 26 5 23 3 24 1 21v14l-1 22-4 31-7 27-7 21-11 24-9 17-12 19-13 17-12 14-22 22-11 9-19 14-21 13-24 12-28 11-25 7-23 4-20 2h-51l-27-3-23-5-33-11-18-8-22-12-19-12-13-10-13-11-12-11-12-12-9-11-12-15-9-14-10-17-8-16-8-18-9-27-5-21-3-20-1-14v-50l3-27 7-30 7-21 11-25 10-19 14-22 9-11 6-8 11-12 9-10 20-18 19-14 24-15 22-11 23-9 22-7 24-5zm-1 10-25 3-23 5-26 8-21 9-22 11-19 12-17 13-13 11-6 5v2l-4 2-7 7-7 8-13 16-18 27-14 27-10 25-7 23-5 26-2 17v53l4 27 5 21 10 30 9 20 8 15 10 16 10 14 8 10 10 11 7 8 7 7 8 7 13 11 18 13 24 14 23 11 25 9 32 8 22 3 15 1h28l25-2 23-4 26-7 22-8 27-13 21-13 16-12 16-13 7-7 4-3v-2l3-1 7-8 8-9 13-17 10-15 10-18 8-16 10-26 5-18 4-17 3-18 2-26v-20l-2-26-5-27-6-23-9-25-12-25-10-17-10-14-10-13-12-14-17-17-11-9-15-12-22-14-25-13-23-9-19-6-22-5-20-3-10-1z" fill="#0553A1"/>
<path transform="translate(924,1233)" d="m0 0h12l7 14 13 29 10 23v2l3-3 12-28 7-15 8-18 2-4h13l1 1 3 46 2 36v7l-7 1-7-1-2-30-2-45-2 3-11 24-11 25-10 22h-4l-16-35-16-36-1 7-3 56-1 9-5 1-1-5 3-59 2-26z" fill="#0553A1"/>
<path transform="translate(1141,1233)" d="m0 0h33l13 3 8 5 4 5 1 3v12l-4 6-7 6-4 2 3 2 10 6 6 7 2 5-1 10-6 9-7 5-13 4-17 1h-21l-1-1v-89zm23 5-10 2-1 3v31l1 1h14l8-2 6-4 4-7 1-9-3-7-7-6-6-2zm-11 41v38l3 2h15l8-2 6-4 4-5 2-9-3-9-5-5-8-5-4-1z" fill="#0553A1"/>
<path transform="translate(1072,1232)" d="m0 0h19l10 3 9 6 7 8 5 11 1 5v22l-3 11-6 10-8 8-14 7-8 2h-19l-11-4-8-6-7-9-5-13-1-13 2-15 5-12 8-10 11-7zm5 5-9 3-8 6-6 8-4 10-2 9v15l4 16 8 11 9 5 12 1 9-2 10-8 6-12 3-15v-13l-3-14-6-10-7-6-7-3z" fill="#0553A1"/>
<path transform="translate(826,1231)" d="m0 0 3 1 18 41 16 37 5 12-1 2h-11l-4-4-8-19-1-1h-40l-8 19-2 4-6 1-1-3 9-20 14-32 9-21 7-16zm-3 20-6 12-12 29v2h36l-6-17-10-25z" fill="#0553A1"/>
<path transform="translate(882,1233)" d="m0 0h12l1 1v89l-2 1h-8l-3-1z" fill="#0553A1"/>
<path transform="translate(971,1428)" d="m0 0h14l11 2 5 5 4 6 1 3v10l-3 9-5 6-5 2h-22l-1-1v-41zm3 3v37l4 1h13l6-3 4-6 1-4v-13l-3-6-5-5-3-1z" fill="#0553A1"/>
<path transform="translate(480,1428)" d="m0 0h14l9 1 5 4 2 5-1 9-6 5h-2l6 11 4 8-4-1-8-14v-2l-17-2v19l-4-1v-41zm2 3v18l9 1h10l5-5v-9l-5-5z" fill="#0553A1"/>
<path transform="translate(1053,1428)" d="m0 0h9l8 4 4 5 2 5v15l-3 7-4 5-7 3h-12l-6-4-5-7-2-6v-9l4-10 8-7zm-2 3-7 6-3 7v12l3 7 5 5 2 1h12l7-6 3-8v-11l-3-7-7-6z" fill="#0553A1"/>
<path transform="translate(1436,1428)" d="m0 0h11l8 4 4 5 2 5v16l-4 8-6 5-4 1h-12l-6-4-5-7-1-3v-15l4-8 5-5zm4 2-7 3-5 6-2 6v11l3 8 4 4 3 1h12l6-4 3-7 1-11-2-9-8-7z" fill="#0553A1"/>
<path transform="translate(1284,1428)" d="m0 0 4 2 10 14 13 17 1 3h2v-35h4v42l-5-1-21-28-4-5-1 34h-3z" fill="#0553A1"/>
<path transform="translate(1225,1428)" d="m0 0h10l8 4 4 5 2 5v16l-4 8-6 5-4 1h-12l-6-4-5-7-1-3v-15l4-8 5-5zm-1 3-7 6-3 8v11l3 8 5 4 2 1h12l6-4 3-7 1-11-2-9-8-7z" fill="#0553A1"/>
<path transform="translate(901,1428)" d="m0 0 6 5 14 19 9 12 1 1 1-37h3v43l-5-1-14-19-12-16-1 36-3-1v-41z" fill="#0553A1"/>
<path transform="translate(1353,1428)" d="m0 0h3v20h28l1-19h3v42h-3v-20h-29v20h-3z" fill="#0553A1"/>
<path transform="translate(1159,1428)" d="m0 0h9l7 2 4 4v2l-10-4h-12l-5 5 1 7 6 4 13 3 7 5 1 6-4 6-3 3-4 1h-10l-9-3-2-4 4 1 7 2h11l5-4 1-5-5-4-5-2-10-2-7-6-1-2v-6l7-8z" fill="#0553A1"/>
<path transform="translate(1504,1428)" d="m0 0h9l8 3 3 3v2l-10-4h-12l-4 4-1 7 5 4 15 4 6 4 1 2v7l-6 7-2 1h-13l-8-3-3-4 5 1 6 2h12l4-3 1-6-3-4-17-5-5-4-2-3v-6l6-7z" fill="#0553A1"/>
<path transform="translate(621,1428)" d="m0 0h3l17 40v3l-3-1-5-10-23-1-3 9-2 3-3-1 11-25 5-12zm0 5-8 19-1 4 3 1h17l-1-5-8-19z" fill="#0553A1"/>
<path transform="translate(847,1428)" d="m0 0h2l8 17 7 17 3 6-1 4-5-8-2-4h-22l-6 11-2 1 1-6 12-28zm0 5-9 21v2l4 1h16l-4-13-5-10z" fill="#0553A1"/>
<path transform="translate(545,1428)" d="m0 0h12l15 1v2l-24 1-1 16 24 1v2h-24v17l25 1v2h-28v-42z" fill="#0553A1"/>
<path transform="translate(792,1428)" d="m0 0h6l-2 5-7 11-14 20-2 3 1 1 25 1v2h-32l2-4 11-16 9-13 4-7h-26v-2z" fill="#0553A1"/>
<path transform="translate(677,1428)" d="m0 0 2 2-1 38 23 1v2h-26l-1-1v-41z" fill="#0553A1"/>
<path transform="translate(733,1428)" d="m0 0h2v43h-3v-24z" fill="#0553A1"/>
</svg>
